<svg width="250" height="80" viewBox="0 0 250 80" fill="none" xmlns="http://www.w3.org/2000/svg">
<rect width="250" height="80" fill="white"/>
<path d="M9.03835 45.7798V43.2443L20.2244 25.5455H22.0639V29.473H20.821L12.3693 42.8466V43.0455H27.4332V45.7798H9.03835ZM21.0199 51V45.0092V43.8285V25.5455H23.9531V51H21.0199ZM33.0822 51.1989C32.469 51.1989 31.9429 50.9793 31.5037 50.5401C31.0646 50.101 30.845 49.5748 30.845 48.9616C30.845 48.3485 31.0646 47.8223 31.5037 47.3832C31.9429 46.944 32.469 46.7244 33.0822 46.7244C33.6954 46.7244 34.2215 46.944 34.6607 47.3832C35.0998 47.8223 35.3194 48.3485 35.3194 48.9616C35.3194 49.3677 35.2158 49.7405 35.0087 50.0803C34.8098 50.42 34.5405 50.6934 34.2008 50.9006C33.8694 51.0994 33.4965 51.1989 33.0822 51.1989ZM48.3978 25.1974C49.4419 25.2057 50.4859 25.4046 51.5299 25.794C52.574 26.1835 53.5268 26.8298 54.3886 27.733C55.2503 28.6278 55.9422 29.85 56.4642 31.3995C56.9862 32.949 57.2472 34.892 57.2472 37.2287C57.2472 39.4908 57.0318 41.5001 56.6009 43.2567C56.1784 45.0051 55.5652 46.48 54.7615 47.6815C53.966 48.8829 52.9965 49.7944 51.8531 50.4158C50.7179 51.0373 49.4336 51.348 48.0001 51.348C46.5749 51.348 45.303 51.0663 44.1844 50.5028C43.0741 49.9311 42.1626 49.1398 41.45 48.1289C40.7457 47.1097 40.2941 45.929 40.0953 44.5866H43.1279C43.4014 45.755 43.9441 46.7203 44.7561 47.4826C45.5764 48.2366 46.6578 48.6136 48.0001 48.6136C49.9639 48.6136 51.5133 47.756 52.6485 46.0408C53.792 44.3256 54.3637 41.902 54.3637 38.7699H54.1649C53.7008 39.4659 53.1498 40.0666 52.5118 40.5721C51.8738 41.0775 51.1653 41.467 50.3865 41.7404C49.6076 42.0138 48.779 42.1506 47.9007 42.1506C46.4423 42.1506 45.1041 41.7901 43.8861 41.0692C42.6763 40.3401 41.7069 39.3416 40.9777 38.0739C40.2568 36.7978 39.8964 35.3395 39.8964 33.6989C39.8964 32.1411 40.2444 30.7159 40.9404 29.4233C41.6447 28.1224 42.6308 27.0866 43.8985 26.3161C45.1746 25.5455 46.6743 25.1726 48.3978 25.1974ZM48.3978 27.9318C47.3538 27.9318 46.4133 28.1928 45.5764 28.7148C44.7478 29.2286 44.0891 29.9246 43.6002 30.8029C43.1196 31.6729 42.8794 32.6383 42.8794 33.6989C42.8794 34.7595 43.1114 35.7248 43.5754 36.5948C44.0477 37.4566 44.6898 38.1443 45.5019 38.658C46.3222 39.1635 47.2544 39.4162 48.2984 39.4162C49.0856 39.4162 49.8189 39.2629 50.4983 38.9563C51.1778 38.6415 51.7702 38.2147 52.2757 37.6761C52.7894 37.1293 53.1913 36.512 53.4813 35.8242C53.7713 35.1282 53.9163 34.4032 53.9163 33.6491C53.9163 32.6548 53.676 31.7227 53.1954 30.8526C52.7231 29.9826 52.0685 29.2783 51.2316 28.7397C50.403 28.2011 49.4584 27.9318 48.3978 27.9318Z" fill="#1D1D1B"/>
<path d="M68.9688 59V51H71.7656C72.3229 51 72.7826 51.0964 73.1445 51.2891C73.5065 51.4792 73.776 51.7357 73.9531 52.0586C74.1302 52.3789 74.2188 52.7344 74.2188 53.125C74.2188 53.4687 74.1576 53.7526 74.0352 53.9766C73.9154 54.2005 73.7565 54.3776 73.5586 54.5078C73.3633 54.638 73.151 54.7344 72.9219 54.7969V54.875C73.1667 54.8906 73.4128 54.9766 73.6602 55.1328C73.9076 55.2891 74.1146 55.513 74.2813 55.8047C74.4479 56.0964 74.5312 56.4531 74.5312 56.875C74.5312 57.276 74.4401 57.6367 74.2578 57.957C74.0755 58.2773 73.7878 58.5312 73.3945 58.7187C73.0013 58.9062 72.4896 59 71.8594 59H68.9688ZM69.9375 58.1406H71.8594C72.4922 58.1406 72.9414 58.0182 73.207 57.7734C73.4753 57.526 73.6094 57.2266 73.6094 56.875C73.6094 56.6042 73.5404 56.3542 73.4023 56.125C73.2643 55.8932 73.0677 55.7083 72.8125 55.5703C72.5573 55.4297 72.2552 55.3594 71.9063 55.3594H69.9375V58.1406ZM69.9375 54.5156H71.7344C72.026 54.5156 72.2891 54.4583 72.5234 54.3437C72.7604 54.2292 72.9479 54.0677 73.0859 53.8594C73.2266 53.651 73.2969 53.4062 73.2969 53.125C73.2969 52.7734 73.1745 52.4753 72.9297 52.2305C72.6849 51.9831 72.2969 51.8594 71.7656 51.8594H69.9375V54.5156ZM77.8737 59.1406C77.4935 59.1406 77.1484 59.069 76.8385 58.9258C76.5286 58.7799 76.2825 58.5703 76.1002 58.2969C75.9179 58.0208 75.8268 57.6875 75.8268 57.2969C75.8268 56.9531 75.8945 56.6745 76.0299 56.4609C76.1653 56.2448 76.3463 56.0755 76.5729 55.9531C76.7995 55.8307 77.0495 55.7396 77.3229 55.6797C77.5989 55.6172 77.8763 55.5677 78.1549 55.5313C78.5195 55.4844 78.8151 55.4492 79.0416 55.4258C79.2708 55.3997 79.4375 55.3568 79.5416 55.2969C79.6484 55.237 79.7018 55.1328 79.7018 54.9844V54.9531C79.7018 54.5677 79.5963 54.2682 79.3854 54.0547C79.1771 53.8411 78.8607 53.7344 78.4362 53.7344C77.9961 53.7344 77.651 53.8307 77.401 54.0234C77.151 54.2161 76.9752 54.4219 76.8737 54.6406L75.9987 54.3281C76.1549 53.9635 76.3633 53.6797 76.6237 53.4766C76.8867 53.2708 77.1732 53.1276 77.483 53.0469C77.7955 52.9635 78.1028 52.9219 78.4049 52.9219C78.5976 52.9219 78.819 52.9453 79.069 52.9922C79.3216 53.0365 79.5651 53.1289 79.7995 53.2695C80.0364 53.4102 80.233 53.6224 80.3893 53.9062C80.5455 54.1901 80.6237 54.5703 80.6237 55.0469V59H79.7018V58.1875H79.6549C79.5924 58.3177 79.4883 58.457 79.3424 58.6055C79.1966 58.7539 79.0026 58.8802 78.7604 58.9844C78.5182 59.0885 78.2226 59.1406 77.8737 59.1406ZM78.0143 58.3125C78.3789 58.3125 78.6862 58.2409 78.9362 58.0977C79.1888 57.9544 79.3789 57.7695 79.5065 57.543C79.6367 57.3164 79.7018 57.0781 79.7018 56.8281V55.9844C79.6627 56.0312 79.5768 56.0742 79.444 56.1133C79.3138 56.1497 79.1627 56.1823 78.9909 56.2109C78.8216 56.237 78.6562 56.2604 78.4948 56.2812C78.3359 56.2995 78.207 56.3151 78.108 56.3281C77.8685 56.3594 77.6445 56.4102 77.4362 56.4805C77.2304 56.5482 77.0638 56.651 76.9362 56.7891C76.8112 56.9245 76.7487 57.1094 76.7487 57.3437C76.7487 57.6641 76.8672 57.9062 77.1041 58.0703C77.3437 58.2318 77.6471 58.3125 78.0143 58.3125ZM86.6663 54.3437L85.8382 54.5781C85.7861 54.4401 85.7093 54.306 85.6077 54.1758C85.5087 54.043 85.3733 53.9336 85.2014 53.8477C85.0296 53.7617 84.8095 53.7187 84.5413 53.7187C84.1741 53.7187 83.8681 53.8034 83.6233 53.9727C83.3811 54.1393 83.26 54.3516 83.26 54.6094C83.26 54.8385 83.3434 55.0195 83.51 55.1523C83.6767 55.2852 83.9371 55.3958 84.2913 55.4844L85.1819 55.7031C85.7184 55.8333 86.1181 56.0326 86.3811 56.3008C86.6442 56.5664 86.7757 56.9089 86.7757 57.3281C86.7757 57.6719 86.6767 57.9792 86.4788 58.25C86.2835 58.5208 86.01 58.7344 85.6585 58.8906C85.3069 59.0469 84.8981 59.125 84.4319 59.125C83.8199 59.125 83.3134 58.9922 82.9124 58.7266C82.5113 58.4609 82.2574 58.0729 82.1507 57.5625L83.0257 57.3437C83.109 57.6667 83.2665 57.9089 83.4983 58.0703C83.7327 58.2318 84.0387 58.3125 84.4163 58.3125C84.846 58.3125 85.1871 58.2214 85.4397 58.0391C85.6949 57.8542 85.8225 57.6328 85.8225 57.375C85.8225 57.1667 85.7496 56.9922 85.6038 56.8516C85.458 56.7083 85.234 56.6016 84.9319 56.5312L83.9319 56.2969C83.3824 56.1667 82.9788 55.9648 82.721 55.6914C82.4658 55.4154 82.3382 55.0703 82.3382 54.6562C82.3382 54.3177 82.4332 54.0182 82.6233 53.7578C82.816 53.4974 83.0777 53.293 83.4085 53.1445C83.7418 52.9961 84.1194 52.9219 84.5413 52.9219C85.135 52.9219 85.6012 53.0521 85.9397 53.3125C86.2809 53.5729 86.5231 53.9167 86.6663 54.3437ZM90.039 59.1406C89.6588 59.1406 89.3137 59.069 89.0038 58.9258C88.6939 58.7799 88.4478 58.5703 88.2655 58.2969C88.0833 58.0208 87.9921 57.6875 87.9921 57.2969C87.9921 56.9531 88.0598 56.6745 88.1952 56.4609C88.3307 56.2448 88.5116 56.0755 88.7382 55.9531C88.9648 55.8307 89.2148 55.7396 89.4882 55.6797C89.7642 55.6172 90.0416 55.5677 90.3202 55.5313C90.6848 55.4844 90.9804 55.4492 91.207 55.4258C91.4361 55.3997 91.6028 55.3568 91.707 55.2969C91.8137 55.237 91.8671 55.1328 91.8671 54.9844V54.9531C91.8671 54.5677 91.7616 54.2682 91.5507 54.0547C91.3424 53.8411 91.026 53.7344 90.6015 53.7344C90.1614 53.7344 89.8163 53.8307 89.5663 54.0234C89.3163 54.2161 89.1405 54.4219 89.039 54.6406L88.164 54.3281C88.3202 53.9635 88.5286 53.6797 88.789 53.4766C89.052 53.2708 89.3385 53.1276 89.6484 53.0469C89.9609 52.9635 90.2682 52.9219 90.5702 52.9219C90.7629 52.9219 90.9843 52.9453 91.2343 52.9922C91.4869 53.0365 91.7304 53.1289 91.9648 53.2695C92.2017 53.4102 92.3984 53.6224 92.5546 53.9062C92.7109 54.1901 92.789 54.5703 92.789 55.0469V59H91.8671V58.1875H91.8202C91.7577 58.3177 91.6536 58.457 91.5077 58.6055C91.3619 58.7539 91.1679 58.8802 90.9257 58.9844C90.6835 59.0885 90.3879 59.1406 90.039 59.1406ZM90.1796 58.3125C90.5442 58.3125 90.8515 58.2409 91.1015 58.0977C91.3541 57.9544 91.5442 57.7695 91.6718 57.543C91.802 57.3164 91.8671 57.0781 91.8671 56.8281V55.9844C91.828 56.0312 91.7421 56.0742 91.6093 56.1133C91.4791 56.1497 91.328 56.1823 91.1562 56.2109C90.9869 56.237 90.8215 56.2604 90.6601 56.2812C90.5012 56.2995 90.3723 56.3151 90.2734 56.3281C90.0338 56.3594 89.8098 56.4102 89.6015 56.4805C89.3958 56.5482 89.2291 56.651 89.1015 56.7891C88.9765 56.9245 88.914 57.1094 88.914 57.3437C88.914 57.6641 89.0325 57.9062 89.2695 58.0703C89.509 58.2318 89.8124 58.3125 90.1796 58.3125ZM96.8472 59.125C96.3472 59.125 95.9058 58.9987 95.523 58.7461C95.1402 58.4909 94.8407 58.1315 94.6246 57.668C94.4084 57.2018 94.3004 56.651 94.3004 56.0156C94.3004 55.3854 94.4084 54.8385 94.6246 54.375C94.8407 53.9115 95.1415 53.5534 95.5269 53.3008C95.9123 53.0482 96.3576 52.9219 96.8629 52.9219C97.2535 52.9219 97.5621 52.987 97.7886 53.1172C98.0178 53.2448 98.1923 53.3906 98.3121 53.5547C98.4345 53.7161 98.5295 53.849 98.5972 53.9531H98.6754V51H99.5972V59H98.7066V58.0781H98.5972C98.5295 58.1875 98.4332 58.3255 98.3082 58.4922C98.1832 58.6562 98.0048 58.8034 97.773 58.9336C97.5412 59.0612 97.2326 59.125 96.8472 59.125ZM96.9722 58.2969C97.342 58.2969 97.6545 58.2005 97.9097 58.0078C98.1649 57.8125 98.3589 57.543 98.4918 57.1992C98.6246 56.8529 98.691 56.4531 98.691 56C98.691 55.5521 98.6259 55.1602 98.4957 54.8242C98.3655 54.4857 98.1727 54.2227 97.9175 54.0352C97.6623 53.8451 97.3472 53.75 96.9722 53.75C96.5816 53.75 96.2561 53.8503 95.9957 54.0508C95.7379 54.2487 95.5438 54.5182 95.4136 54.8594C95.286 55.1979 95.2222 55.5781 95.2222 56C95.2222 56.4271 95.2873 56.8151 95.4175 57.1641C95.5504 57.5104 95.7457 57.7865 96.0035 57.9922C96.2639 58.1953 96.5868 58.2969 96.9722 58.2969ZM103.289 59.1406C102.909 59.1406 102.564 59.069 102.254 58.9258C101.944 58.7799 101.698 58.5703 101.516 58.2969C101.334 58.0208 101.242 57.6875 101.242 57.2969C101.242 56.9531 101.31 56.6745 101.446 56.4609C101.581 56.2448 101.762 56.0755 101.988 55.9531C102.215 55.8307 102.465 55.7396 102.738 55.6797C103.015 55.6172 103.292 55.5677 103.571 55.5313C103.935 55.4844 104.231 55.4492 104.457 55.4258C104.686 55.3997 104.853 55.3568 104.957 55.2969C105.064 55.237 105.117 55.1328 105.117 54.9844V54.9531C105.117 54.5677 105.012 54.2682 104.801 54.0547C104.593 53.8411 104.276 53.7344 103.852 53.7344C103.412 53.7344 103.067 53.8307 102.817 54.0234C102.567 54.2161 102.391 54.4219 102.289 54.6406L101.414 54.3281C101.571 53.9635 101.779 53.6797 102.039 53.4766C102.302 53.2708 102.589 53.1276 102.899 53.0469C103.211 52.9635 103.518 52.9219 103.821 52.9219C104.013 52.9219 104.235 52.9453 104.485 52.9922C104.737 53.0365 104.981 53.1289 105.215 53.2695C105.452 53.4102 105.649 53.6224 105.805 53.9062C105.961 54.1901 106.039 54.5703 106.039 55.0469V59H105.117V58.1875H105.071C105.008 58.3177 104.904 58.457 104.758 58.6055C104.612 58.7539 104.418 58.8802 104.176 58.9844C103.934 59.0885 103.638 59.1406 103.289 59.1406ZM103.43 58.3125C103.794 58.3125 104.102 58.2409 104.352 58.0977C104.604 57.9544 104.794 57.7695 104.922 57.543C105.052 57.3164 105.117 57.0781 105.117 56.8281V55.9844C105.078 56.0312 104.992 56.0742 104.86 56.1133C104.729 56.1497 104.578 56.1823 104.406 56.2109C104.237 56.237 104.072 56.2604 103.91 56.2812C103.751 56.2995 103.623 56.3151 103.524 56.3281C103.284 56.3594 103.06 56.4102 102.852 56.4805C102.646 56.5482 102.479 56.651 102.352 56.7891C102.227 56.9245 102.164 57.1094 102.164 57.3437C102.164 57.6641 102.283 57.9062 102.52 58.0703C102.759 58.2318 103.063 58.3125 103.43 58.3125ZM113.551 59.125C112.973 59.125 112.474 58.9974 112.055 58.7422C111.638 58.4844 111.317 58.125 111.09 57.6641C110.866 57.2005 110.754 56.6615 110.754 56.0469C110.754 55.4323 110.866 54.8906 111.09 54.4219C111.317 53.9505 111.632 53.5833 112.036 53.3203C112.442 53.0547 112.916 52.9219 113.458 52.9219C113.77 52.9219 114.079 52.974 114.383 53.0781C114.688 53.1823 114.965 53.3516 115.215 53.5859C115.465 53.8177 115.665 54.125 115.813 54.5078C115.961 54.8906 116.036 55.362 116.036 55.9219V56.3125H111.411V55.5156H115.098C115.098 55.1771 115.03 54.875 114.895 54.6094C114.762 54.3437 114.572 54.1341 114.325 53.9805C114.08 53.8268 113.791 53.75 113.458 53.75C113.09 53.75 112.773 53.8411 112.504 54.0234C112.239 54.2031 112.034 54.4375 111.891 54.7266C111.748 55.0156 111.676 55.3255 111.676 55.6562V56.1875C111.676 56.6406 111.754 57.0247 111.911 57.3398C112.069 57.6523 112.29 57.8906 112.571 58.0547C112.852 58.2161 113.179 58.2969 113.551 58.2969C113.793 58.2969 114.012 58.263 114.208 58.1953C114.405 58.125 114.576 58.0208 114.719 57.8828C114.862 57.7422 114.973 57.5677 115.051 57.3594L115.942 57.6094C115.848 57.9115 115.691 58.1771 115.469 58.4062C115.248 58.6328 114.974 58.8099 114.649 58.9375C114.323 59.0625 113.958 59.125 113.551 59.125ZM118.47 55.3906V59H117.548V53H118.439V53.9375H118.517C118.657 53.6328 118.871 53.388 119.157 53.2031C119.444 53.0156 119.814 52.9219 120.267 52.9219C120.673 52.9219 121.028 53.0052 121.333 53.1719C121.638 53.3359 121.875 53.5859 122.044 53.9219C122.213 54.2552 122.298 54.6771 122.298 55.1875V59H121.376V55.25C121.376 54.7786 121.254 54.4115 121.009 54.1484C120.764 53.8828 120.428 53.75 120.001 53.75C119.707 53.75 119.444 53.8138 119.212 53.9414C118.983 54.069 118.802 54.2552 118.669 54.5C118.536 54.7448 118.47 55.0417 118.47 55.3906ZM161.558 59V53H162.448V53.9062H162.511C162.62 53.6094 162.818 53.3685 163.105 53.1836C163.391 52.9987 163.714 52.9062 164.073 52.9062C164.141 52.9062 164.226 52.9076 164.327 52.9102C164.429 52.9128 164.506 52.9167 164.558 52.9219V53.8594C164.527 53.8516 164.455 53.8398 164.343 53.8242C164.234 53.806 164.118 53.7969 163.995 53.7969C163.704 53.7969 163.443 53.8581 163.214 53.9805C162.988 54.1003 162.808 54.2669 162.675 54.4805C162.545 54.6914 162.48 54.9323 162.48 55.2031V59H161.558ZM168.094 59.125C167.516 59.125 167.017 58.9974 166.598 58.7422C166.181 58.4844 165.859 58.125 165.633 57.6641C165.409 57.2005 165.297 56.6615 165.297 56.0469C165.297 55.4323 165.409 54.8906 165.633 54.4219C165.859 53.9505 166.174 53.5833 166.578 53.3203C166.984 53.0547 167.458 52.9219 168 52.9219C168.312 52.9219 168.621 52.974 168.926 53.0781C169.23 53.1823 169.508 53.3516 169.758 53.5859C170.008 53.8177 170.207 54.125 170.355 54.5078C170.504 54.8906 170.578 55.362 170.578 55.9219V56.3125H165.953V55.5156H169.641C169.641 55.1771 169.573 54.875 169.437 54.6094C169.305 54.3437 169.114 54.1341 168.867 53.9805C168.622 53.8268 168.333 53.75 168 53.75C167.633 53.75 167.315 53.8411 167.047 54.0234C166.781 54.2031 166.577 54.4375 166.433 54.7266C166.29 55.0156 166.219 55.3255 166.219 55.6562V56.1875C166.219 56.6406 166.297 57.0247 166.453 57.3398C166.612 57.6523 166.832 57.8906 167.113 58.0547C167.394 58.2161 167.721 58.2969 168.094 58.2969C168.336 58.2969 168.555 58.263 168.75 58.1953C168.948 58.125 169.118 58.0208 169.262 57.8828C169.405 57.7422 169.516 57.5677 169.594 57.3594L170.484 57.6094C170.391 57.9115 170.233 58.1771 170.012 58.4062C169.79 58.6328 169.517 58.8099 169.191 58.9375C168.866 59.0625 168.5 59.125 168.094 59.125ZM176.34 54.3437L175.512 54.5781C175.46 54.4401 175.383 54.306 175.282 54.1758C175.183 54.043 175.047 53.9336 174.876 53.8477C174.704 53.7617 174.484 53.7187 174.215 53.7187C173.848 53.7187 173.542 53.8034 173.297 53.9727C173.055 54.1393 172.934 54.3516 172.934 54.6094C172.934 54.8385 173.017 55.0195 173.184 55.1523C173.351 55.2852 173.611 55.3958 173.965 55.4844L174.856 55.7031C175.392 55.8333 175.792 56.0326 176.055 56.3008C176.318 56.5664 176.45 56.9089 176.45 57.3281C176.45 57.6719 176.351 57.9792 176.153 58.25C175.958 58.5208 175.684 58.7344 175.333 58.8906C174.981 59.0469 174.572 59.125 174.106 59.125C173.494 59.125 172.987 58.9922 172.586 58.7266C172.185 58.4609 171.932 58.0729 171.825 57.5625L172.7 57.3437C172.783 57.6667 172.941 57.9089 173.172 58.0703C173.407 58.2318 173.713 58.3125 174.09 58.3125C174.52 58.3125 174.861 58.2214 175.114 58.0391C175.369 57.8542 175.497 57.6328 175.497 57.375C175.497 57.1667 175.424 56.9922 175.278 56.8516C175.132 56.7083 174.908 56.6016 174.606 56.5312L173.606 56.2969C173.057 56.1667 172.653 55.9648 172.395 55.6914C172.14 55.4154 172.012 55.0703 172.012 54.6562C172.012 54.3177 172.107 54.0182 172.297 53.7578C172.49 53.4974 172.752 53.293 173.083 53.1445C173.416 52.9961 173.793 52.9219 174.215 52.9219C174.809 52.9219 175.275 53.0521 175.614 53.3125C175.955 53.5729 176.197 53.9167 176.34 54.3437ZM180.463 59.125C179.885 59.125 179.386 58.9974 178.967 58.7422C178.55 58.4844 178.229 58.125 178.002 57.6641C177.778 57.2005 177.666 56.6615 177.666 56.0469C177.666 55.4323 177.778 54.8906 178.002 54.4219C178.229 53.9505 178.544 53.5833 178.947 53.3203C179.354 53.0547 179.828 52.9219 180.369 52.9219C180.682 52.9219 180.99 52.974 181.295 53.0781C181.6 53.1823 181.877 53.3516 182.127 53.5859C182.377 53.8177 182.576 54.125 182.725 54.5078C182.873 54.8906 182.947 55.362 182.947 55.9219V56.3125H178.322V55.5156H182.01C182.01 55.1771 181.942 54.875 181.807 54.6094C181.674 54.3437 181.484 54.1341 181.236 53.9805C180.992 53.8268 180.703 53.75 180.369 53.75C180.002 53.75 179.684 53.8411 179.416 54.0234C179.151 54.2031 178.946 54.4375 178.803 54.7266C178.66 55.0156 178.588 55.3255 178.588 55.6562V56.1875C178.588 56.6406 178.666 57.0247 178.822 57.3398C178.981 57.6523 179.201 57.8906 179.483 58.0547C179.764 58.2161 180.091 58.2969 180.463 58.2969C180.705 58.2969 180.924 58.263 181.119 58.1953C181.317 58.125 181.488 58.0208 181.631 57.8828C181.774 57.7422 181.885 57.5677 181.963 57.3594L182.854 57.6094C182.76 57.9115 182.602 58.1771 182.381 58.4062C182.16 58.6328 181.886 58.8099 181.561 58.9375C181.235 59.0625 180.869 59.125 180.463 59.125ZM185.382 55.3906V59H184.46V53H185.35V53.9375H185.429C185.569 53.6328 185.783 53.388 186.069 53.2031C186.356 53.0156 186.725 52.9219 187.179 52.9219C187.585 52.9219 187.94 53.0052 188.245 53.1719C188.55 53.3359 188.787 53.5859 188.956 53.9219C189.125 54.2552 189.21 54.6771 189.21 55.1875V59H188.288V55.25C188.288 54.7786 188.165 54.4115 187.921 54.1484C187.676 53.8828 187.34 53.75 186.913 53.75C186.619 53.75 186.356 53.8138 186.124 53.9414C185.895 54.069 185.714 54.2552 185.581 54.5C185.448 54.7448 185.382 55.0417 185.382 55.3906ZM185.632 52.2812L184.913 52.25C184.913 51.8516 185.026 51.526 185.253 51.2734C185.482 51.0182 185.764 50.8906 186.1 50.8906C186.249 50.8906 186.38 50.9167 186.495 50.9687C186.61 51.0182 186.719 51.0755 186.823 51.1406C186.927 51.2057 187.034 51.2643 187.143 51.3164C187.255 51.3659 187.382 51.3906 187.522 51.3906C187.671 51.3906 187.796 51.3333 187.897 51.2187C188.001 51.1016 188.054 50.9609 188.054 50.7969L188.757 50.8594C188.757 51.2656 188.642 51.5885 188.413 51.8281C188.186 52.0677 187.905 52.1875 187.569 52.1875C187.389 52.1875 187.241 52.1628 187.124 52.1133C187.007 52.0612 186.902 52.0026 186.811 51.9375C186.72 51.8724 186.624 51.8151 186.522 51.7656C186.421 51.7135 186.296 51.6875 186.147 51.6875C185.999 51.6875 185.875 51.7461 185.776 51.8633C185.68 51.9779 185.632 52.1172 185.632 52.2812ZM192.77 59.1406C192.39 59.1406 192.045 59.069 191.735 58.9258C191.425 58.7799 191.179 58.5703 190.997 58.2969C190.814 58.0208 190.723 57.6875 190.723 57.2969C190.723 56.9531 190.791 56.6745 190.926 56.4609C191.062 56.2448 191.243 56.0755 191.469 55.9531C191.696 55.8307 191.946 55.7396 192.219 55.6797C192.495 55.6172 192.773 55.5677 193.051 55.5313C193.416 55.4844 193.711 55.4492 193.938 55.4258C194.167 55.3997 194.334 55.3568 194.438 55.2969C194.545 55.237 194.598 55.1328 194.598 54.9844V54.9531C194.598 54.5677 194.493 54.2682 194.282 54.0547C194.073 53.8411 193.757 53.7344 193.332 53.7344C192.892 53.7344 192.547 53.8307 192.297 54.0234C192.047 54.2161 191.872 54.4219 191.77 54.6406L190.895 54.3281C191.051 53.9635 191.26 53.6797 191.52 53.4766C191.783 53.2708 192.069 53.1276 192.379 53.0469C192.692 52.9635 192.999 52.9219 193.301 52.9219C193.494 52.9219 193.715 52.9453 193.965 52.9922C194.218 53.0365 194.461 53.1289 194.696 53.2695C194.933 53.4102 195.129 53.6224 195.286 53.9062C195.442 54.1901 195.52 54.5703 195.52 55.0469V59H194.598V58.1875H194.551C194.489 58.3177 194.385 58.457 194.239 58.6055C194.093 58.7539 193.899 58.8802 193.657 58.9844C193.414 59.0885 193.119 59.1406 192.77 59.1406ZM192.911 58.3125C193.275 58.3125 193.582 58.2409 193.832 58.0977C194.085 57.9544 194.275 57.7695 194.403 57.543C194.533 57.3164 194.598 57.0781 194.598 56.8281V55.9844C194.559 56.0312 194.473 56.0742 194.34 56.1133C194.21 56.1497 194.059 56.1823 193.887 56.2109C193.718 56.237 193.553 56.2604 193.391 56.2812C193.232 56.2995 193.103 56.3151 193.004 56.3281C192.765 56.3594 192.541 56.4102 192.332 56.4805C192.127 56.5482 191.96 56.651 191.832 56.7891C191.707 56.9245 191.645 57.1094 191.645 57.3437C191.645 57.6641 191.763 57.9062 192 58.0703C192.24 58.2318 192.543 58.3125 192.911 58.3125ZM201.563 54.3437L200.734 54.5781C200.682 54.4401 200.606 54.306 200.504 54.1758C200.405 54.043 200.27 53.9336 200.098 53.8477C199.926 53.7617 199.706 53.7187 199.438 53.7187C199.07 53.7187 198.764 53.8034 198.52 53.9727C198.277 54.1393 198.156 54.3516 198.156 54.6094C198.156 54.8385 198.24 55.0195 198.406 55.1523C198.573 55.2852 198.833 55.3958 199.188 55.4844L200.078 55.7031C200.615 55.8333 201.014 56.0326 201.277 56.3008C201.54 56.5664 201.672 56.9089 201.672 57.3281C201.672 57.6719 201.573 57.9792 201.375 58.25C201.18 58.5208 200.906 58.7344 200.555 58.8906C200.203 59.0469 199.794 59.125 199.328 59.125C198.716 59.125 198.21 58.9922 197.809 58.7266C197.408 58.4609 197.154 58.0729 197.047 57.5625L197.922 57.3437C198.005 57.6667 198.163 57.9089 198.395 58.0703C198.629 58.2318 198.935 58.3125 199.313 58.3125C199.742 58.3125 200.083 58.2214 200.336 58.0391C200.591 57.8542 200.719 57.6328 200.719 57.375C200.719 57.1667 200.646 56.9922 200.5 56.8516C200.354 56.7083 200.13 56.6016 199.828 56.5312L198.828 56.2969C198.279 56.1667 197.875 55.9648 197.617 55.6914C197.362 55.4154 197.234 55.0703 197.234 54.6562C197.234 54.3177 197.33 54.0182 197.52 53.7578C197.712 53.4974 197.974 53.293 198.305 53.1445C198.638 52.9961 199.016 52.9219 199.438 52.9219C200.031 52.9219 200.497 53.0521 200.836 53.3125C201.177 53.5729 201.419 53.9167 201.563 54.3437Z" fill="#4F4F4F"/>
<path d="M129.984 59.1094C129.468 59.1094 129.009 59.0208 128.605 58.8437C128.204 58.6667 127.885 58.4206 127.648 58.1055C127.413 57.7878 127.286 57.4193 127.265 57H128.249C128.27 57.2578 128.359 57.4805 128.515 57.668C128.671 57.8529 128.876 57.9961 129.128 58.0977C129.381 58.1992 129.661 58.25 129.968 58.25C130.312 58.25 130.617 58.1901 130.882 58.0703C131.148 57.9505 131.356 57.7839 131.507 57.5703C131.658 57.3568 131.734 57.1094 131.734 56.8281C131.734 56.5339 131.661 56.2747 131.515 56.0508C131.369 55.8242 131.156 55.6471 130.874 55.5195C130.593 55.3919 130.249 55.3281 129.843 55.3281H129.203V54.4687H129.843C130.161 54.4687 130.44 54.4115 130.679 54.2969C130.921 54.1823 131.11 54.0208 131.246 53.8125C131.384 53.6042 131.453 53.3594 131.453 53.0781C131.453 52.8073 131.393 52.5716 131.273 52.3711C131.153 52.1706 130.984 52.0143 130.765 51.9023C130.549 51.7904 130.294 51.7344 129.999 51.7344C129.723 51.7344 129.463 51.7852 129.218 51.8867C128.976 51.9857 128.778 52.1302 128.624 52.3203C128.471 52.5078 128.387 52.7344 128.374 53H127.437C127.453 52.5807 127.579 52.2135 127.816 51.8984C128.053 51.5807 128.363 51.3333 128.746 51.1562C129.131 50.9792 129.554 50.8906 130.015 50.8906C130.51 50.8906 130.934 50.9909 131.288 51.1914C131.643 51.3893 131.915 51.651 132.105 51.9766C132.295 52.3021 132.39 52.6536 132.39 53.0313C132.39 53.4818 132.272 53.8659 132.035 54.1836C131.8 54.5013 131.481 54.7214 131.078 54.8438V54.9062C131.583 54.9896 131.977 55.2044 132.261 55.5508C132.545 55.8945 132.687 56.3203 132.687 56.8281C132.687 57.263 132.568 57.6536 132.331 58C132.097 58.3437 131.777 58.6146 131.371 58.8125C130.964 59.0104 130.502 59.1094 129.984 59.1094ZM140.208 59.1094C139.619 59.1094 139.118 58.9492 138.704 58.6289C138.29 58.306 137.973 57.8385 137.755 57.2266C137.536 56.612 137.426 55.8698 137.426 55C137.426 54.1354 137.536 53.3971 137.755 52.7852C137.976 52.1706 138.294 51.7018 138.708 51.3789C139.124 51.0534 139.624 50.8906 140.208 50.8906C140.791 50.8906 141.29 51.0534 141.704 51.3789C142.12 51.7018 142.438 52.1706 142.657 52.7852C142.878 53.3971 142.989 54.1354 142.989 55C142.989 55.8698 142.88 56.612 142.661 57.2266C142.442 57.8385 142.126 58.306 141.712 58.6289C141.298 58.9492 140.796 59.1094 140.208 59.1094ZM140.208 58.25C140.791 58.25 141.244 57.9687 141.567 57.4062C141.89 56.8437 142.051 56.0417 142.051 55C142.051 54.3073 141.977 53.7174 141.829 53.2305C141.683 52.7435 141.472 52.3724 141.196 52.1172C140.923 51.862 140.593 51.7344 140.208 51.7344C139.63 51.7344 139.178 52.0195 138.852 52.5898C138.527 53.1576 138.364 53.9609 138.364 55C138.364 55.6927 138.437 56.2812 138.583 56.7656C138.729 57.25 138.938 57.6185 139.212 57.8711C139.488 58.1237 139.82 58.25 140.208 58.25ZM144.583 59V58.2969L147.224 55.4062C147.534 55.0677 147.789 54.7734 147.99 54.5234C148.19 54.2708 148.339 54.0339 148.435 53.8125C148.534 53.5885 148.583 53.3542 148.583 53.1094C148.583 52.8281 148.516 52.5846 148.38 52.3789C148.247 52.1732 148.065 52.0143 147.833 51.9023C147.602 51.7904 147.341 51.7344 147.052 51.7344C146.745 51.7344 146.477 51.7982 146.247 51.9258C146.021 52.0508 145.845 52.2266 145.72 52.4531C145.598 52.6797 145.536 52.9453 145.536 53.25H144.615C144.615 52.7812 144.723 52.3698 144.939 52.0156C145.155 51.6615 145.449 51.3854 145.822 51.1875C146.197 50.9896 146.617 50.8906 147.083 50.8906C147.552 50.8906 147.967 50.9896 148.329 51.1875C148.691 51.3854 148.975 51.6523 149.181 51.9883C149.387 52.3242 149.49 52.6979 149.49 53.1094C149.49 53.4036 149.436 53.6914 149.329 53.9727C149.225 54.2513 149.043 54.5625 148.783 54.9062C148.525 55.2474 148.167 55.6641 147.708 56.1562L145.911 58.0781V58.1406H149.63V59H144.583ZM153.963 59.1094C153.374 59.1094 152.873 58.9492 152.459 58.6289C152.045 58.306 151.728 57.8385 151.51 57.2266C151.291 56.612 151.182 55.8698 151.182 55C151.182 54.1354 151.291 53.3971 151.51 52.7852C151.731 52.1706 152.049 51.7018 152.463 51.3789C152.88 51.0534 153.38 50.8906 153.963 50.8906C154.546 50.8906 155.045 51.0534 155.459 51.3789C155.876 51.7018 156.193 52.1706 156.412 52.7852C156.633 53.3971 156.744 54.1354 156.744 55C156.744 55.8698 156.635 56.612 156.416 57.2266C156.197 57.8385 155.881 58.306 155.467 58.6289C155.053 58.9492 154.551 59.1094 153.963 59.1094ZM153.963 58.25C154.546 58.25 154.999 57.9687 155.322 57.4062C155.645 56.8437 155.807 56.0417 155.807 55C155.807 54.3073 155.732 53.7174 155.584 53.2305C155.438 52.7435 155.227 52.3724 154.951 52.1172C154.678 51.862 154.348 51.7344 153.963 51.7344C153.385 51.7344 152.933 52.0195 152.607 52.5898C152.282 53.1576 152.119 53.9609 152.119 55C152.119 55.6927 152.192 56.2812 152.338 56.7656C152.484 57.25 152.693 57.6185 152.967 57.8711C153.243 58.1237 153.575 58.25 153.963 58.25Z" fill="#FF6B00"/>
<mask id="mask0_15_40" style="mask-type:luminance" maskUnits="userSpaceOnUse" x="68" y="13" width="151" height="32">
<path d="M218.863 13H68V44.3614H218.863V13Z" fill="white"/>
</mask>
<g mask="url(#mask0_15_40)">
<path d="M217.375 17.5586C215.47 18.8173 212.801 20.8583 210.285 23.9473C209.102 25.4011 208.183 26.8032 206.196 30.367C204.629 33.1763 202.571 37.0181 200.294 41.7423C199.447 38.5445 198.54 33.5665 199.093 27.5146C199.683 21.0568 201.684 16.0581 203.195 13.0019C203.91 14.3297 204.887 15.8734 206.221 17.4602C207.08 18.4858 207.943 19.3578 208.75 20.0882C207.334 21.2606 205.439 23.1029 203.776 25.7533C202.436 27.8858 201.659 29.887 201.192 31.4306C202.101 29.4553 203.789 26.4544 206.813 23.5967C210.8 19.8274 215.069 18.2372 217.373 17.5603L217.375 17.5586Z" fill="url(#paint0_linear_15_40)"/>
<path d="M214.741 23.3218C214.125 25.2436 213.833 26.9806 213.702 28.3879C214.574 29.3635 215.525 30.5635 216.444 32.007C217.549 33.7509 218.32 35.3964 218.863 36.7847C217.034 35.987 214.919 35.1875 212.537 34.4882C210.279 33.8234 208.176 33.3693 206.293 33.0499C206.65 32.2194 207.165 31.0798 207.845 29.7537C208.686 28.1065 209.82 25.8894 211.515 23.6206C212.698 22.0355 214.572 19.8668 217.401 17.6964L217.383 17.7206C216.508 19.0898 215.502 20.9701 214.743 23.3218H214.741Z" fill="url(#paint1_linear_15_40)"/>
<path d="M198.936 23.9701C198.38 24.1065 197.579 24.2395 196.613 24.1946C195.661 24.1497 194.884 23.9459 194.347 23.7594C194.632 24.7039 195.055 25.8228 195.689 27.0194C196.486 28.5268 197.381 29.7078 198.151 30.5815C198.151 29.5317 198.211 28.3524 198.371 27.0729C198.514 25.935 198.714 24.8973 198.938 23.9701H198.936Z" fill="url(#paint2_linear_15_40)"/>
<path d="M83.3348 25.2142V28.5121H77.6531V44.1437H73.6816V28.5121H68V25.2142H83.3348Z" fill="#1D1D1B"/>
<path d="M92.7343 31.1645L92.4032 31.705L90.996 34.1655L90.9678 34.1379C90.3602 33.796 89.7086 33.625 89.0094 33.625C88.5304 33.625 88.0812 33.7027 87.6586 33.8547C87.2359 34.0084 86.8589 34.2242 86.5278 34.5039C86.1967 34.7836 85.9167 35.1117 85.686 35.4916C85.4553 35.8697 85.3038 36.2755 85.2316 36.7089V44.1456H81.4803V30.6241H85.2316V32.3818C86.2055 31.0661 87.6304 30.4083 89.506 30.4083C90.6103 30.4083 91.6759 30.6603 92.7061 31.1663H92.7343V31.1645Z" fill="#1D1D1B"/>
<path d="M106.523 30.691V44.2937H102.741V43.5874C102.634 43.6392 102.523 43.6927 102.409 43.7445C102.002 43.9293 101.01 44.361 99.7685 44.361C97.523 44.361 95.9344 43.7635 94.9957 42.5739C94.1292 41.5102 93.7012 39.8164 93.7012 37.4923V30.6236H97.479V37.4923C97.479 37.9775 97.4948 38.4454 97.5212 38.8978C97.5476 39.3484 97.6481 39.7473 97.8242 40.0892C98.0003 40.4311 98.268 40.7056 98.6361 40.9163C99.0042 41.1235 99.529 41.2236 100.211 41.2236C100.433 41.2236 100.651 41.2012 100.866 41.1563C101.295 41.0924 101.889 40.9577 102.541 40.6538C102.609 40.6193 102.678 40.5899 102.743 40.5519V30.6927H106.525L106.523 30.691Z" fill="#1D1D1B"/>
<path d="M115.468 36.1128C116.075 36.3114 116.63 36.5134 117.136 36.7206C117.641 36.9278 118.083 37.1764 118.46 37.4648C118.837 37.7531 119.131 38.1002 119.343 38.506C119.554 38.9117 119.66 39.3935 119.66 39.9529V39.9805C119.66 41.3515 119.195 42.4238 118.267 43.199C117.338 43.9743 116.037 44.3611 114.364 44.3611C113.316 44.3611 112.285 44.1833 111.274 43.8293C110.264 43.4753 109.316 42.9711 108.434 42.315L108.405 42.2874L108.434 42.2597L110.309 39.3572L110.337 39.3849C110.889 39.9616 111.514 40.3984 112.213 40.6954C112.912 40.9924 113.657 41.1409 114.448 41.1409C115.533 41.1409 116.075 40.799 116.075 40.1152C116.075 39.7923 115.901 39.5489 115.551 39.3866C115.202 39.2243 114.788 39.0723 114.309 38.9273C114.217 38.891 114.129 38.8686 114.047 38.8599C113.964 38.8513 113.876 38.8288 113.784 38.7926C113.233 38.6493 112.682 38.4904 112.129 38.3212C111.577 38.1503 111.081 37.9172 110.639 37.6202C110.197 37.3232 109.834 36.9468 109.548 36.4875C109.263 36.0282 109.12 35.4394 109.12 34.7211V34.6676C109.12 34.0373 109.24 33.4624 109.48 32.9409C109.719 32.4195 110.059 31.9705 110.5 31.5924C110.942 31.2143 111.473 30.9225 112.099 30.7152C112.724 30.5081 113.413 30.4045 114.168 30.4045C115.05 30.4045 115.942 30.5357 116.843 30.7964C117.743 31.0588 118.582 31.4405 119.353 31.9464V31.9999L117.671 35.0008L117.643 34.9732C117.22 34.5588 116.695 34.229 116.07 33.9855C115.445 33.7421 114.783 33.6212 114.084 33.6212C113.955 33.6212 113.807 33.6298 113.641 33.6489C113.476 33.6679 113.324 33.7128 113.187 33.7836C113.05 33.856 112.934 33.951 112.842 34.0685C112.75 34.1859 112.705 34.3516 112.705 34.5692C112.705 34.7315 112.779 34.88 112.925 35.0146C113.071 35.1494 113.259 35.2754 113.49 35.3928C113.719 35.5102 113.976 35.6224 114.263 35.7312C114.549 35.84 114.829 35.9384 115.105 36.0282C115.16 36.0282 115.22 36.0368 115.285 36.0558C115.35 36.0748 115.41 36.0921 115.464 36.1094L115.468 36.1128Z" fill="#1D1D1B"/>
<path d="M126.361 35.0319V39.5195C126.361 39.9322 126.514 40.2861 126.817 40.5745C127.12 40.8594 127.483 41.0061 127.905 41.0061H130.582V44.1418H127.905C127.189 44.1418 126.514 44.0106 125.878 43.7515C125.246 43.4891 124.695 43.1282 124.223 42.6706C123.756 42.2079 123.384 41.6709 123.108 41.0597C122.832 40.4467 122.694 39.7906 122.694 39.0878V35.0319H120.706V32.0275H122.694V27.1341H126.361V32.0275H130.582V35.0319H126.361Z" fill="#1D1D1B"/>
<path d="M151.15 25.2142V44.1437H147.261V33.3987L142.243 40.8164L137.194 33.3796V44.1437H133.305V25.2142H136.282L142.243 34.0029L148.174 25.2142H151.15Z" fill="#1D1D1B"/>
<path d="M168.138 30.6237V44.1452H164.524V37.368C164.524 36.8448 164.422 36.3562 164.221 35.9039C164.019 35.4515 163.739 35.0543 163.379 34.7107C163.02 34.3671 162.608 34.1012 162.138 33.9113C161.669 33.7213 161.176 33.6264 160.662 33.6264C160.148 33.6264 159.632 33.7265 159.172 33.9251C158.712 34.1237 158.304 34.3913 157.945 34.7262C157.585 35.0612 157.305 35.4584 157.103 35.9211C156.9 36.3821 156.799 36.8742 156.799 37.3991C156.799 37.924 156.9 38.385 157.103 38.8374C157.305 39.2898 157.585 39.687 157.945 40.0323C158.302 40.3759 158.712 40.647 159.172 40.8473C159.632 41.0459 160.128 41.146 160.662 41.146C161.233 41.146 161.719 41.0476 162.124 40.849H162.152V40.9025L163.531 43.3095L163.503 43.3372C162.601 44.0226 161.49 44.3645 160.165 44.3645C159.19 44.3645 158.272 44.1832 157.407 43.824C156.543 43.4632 155.788 42.9676 155.146 42.3374C154.501 41.7071 153.992 40.9681 153.615 40.1204C153.238 39.2726 153.05 38.3712 153.05 37.4164C153.05 36.4615 153.238 35.5326 153.615 34.6848C153.992 33.837 154.503 33.098 155.146 32.4678C155.788 31.8376 156.543 31.3368 157.407 30.9673C158.272 30.5978 159.191 30.4131 160.165 30.4131C161.139 30.4131 161.958 30.5874 162.675 30.9362C163.392 31.285 164.008 31.7892 164.523 32.4505V30.6289H168.137L168.138 30.6237Z" fill="#1D1D1B"/>
<path d="M175.449 35.0319V39.5195C175.449 39.9322 175.599 40.2861 175.902 40.5745C176.208 40.8594 176.567 41.0061 176.994 41.0061H179.667V44.1418H176.994C176.277 44.1418 175.599 44.0106 174.967 43.7515C174.331 43.4891 173.779 43.1282 173.311 42.6706C172.839 42.2079 172.467 41.6709 172.193 41.0597C171.916 40.4467 171.778 39.7906 171.778 39.0878V35.0319H169.794V32.0275H171.778V27.1341H175.449V32.0275H179.667V35.0319H175.449Z" fill="#1D1D1B"/>
<path d="M194.953 34.6798C194.577 33.8303 194.069 33.0948 193.424 32.4645C192.776 31.8343 192.025 31.3301 191.159 30.9623C190.292 30.5946 189.379 30.4063 188.401 30.4063C187.423 30.4063 186.474 30.5946 185.6 30.9623C184.727 31.3301 183.968 31.8343 183.325 32.4645C182.682 33.0948 182.171 33.832 181.796 34.6798C181.418 35.5293 181.229 36.4376 181.229 37.4097C181.229 38.3818 181.418 39.2693 181.796 40.1136C182.171 40.9632 182.68 41.7022 183.325 42.3341C183.97 42.9661 184.727 43.4617 185.6 43.8208C186.474 44.1817 187.409 44.3613 188.401 44.3613C189.542 44.3613 190.624 44.1057 191.641 43.5946C192.665 43.0869 193.503 42.3773 194.165 41.4691L194.218 41.4121L191.02 40.0342L190.967 40.0049L190.94 40.0342C190.569 40.5039 190.181 40.8043 189.768 40.939C189.354 41.0737 188.897 41.141 188.399 41.141C187.848 41.141 187.353 41.0201 186.909 40.7767C186.469 40.5332 186.093 40.2328 185.778 39.8754C185.541 39.6008 185.345 39.3004 185.192 38.9775H195.321L195.35 38.9205C195.458 38.4353 195.516 37.9329 195.516 37.4063C195.516 36.4341 195.324 35.5242 194.949 34.6764L194.953 34.6798ZM184.981 36.22C185.016 36.1112 185.049 36.0059 185.091 35.9041C185.275 35.4465 185.528 35.0476 185.851 34.7178C186.173 34.3828 186.555 34.1204 186.996 33.9218C187.436 33.7267 187.907 33.6249 188.401 33.6249C189.209 33.6249 189.914 33.8683 190.512 34.357C191.11 34.8421 191.536 35.4655 191.796 36.22H184.981Z" fill="#1D1D1B"/>
</g>
<defs>
<linearGradient id="paint0_linear_15_40" x1="195.388" y1="38.734" x2="210.777" y2="13.5189" gradientUnits="userSpaceOnUse">
<stop stop-color="#FFA727"/>
<stop offset="0.05" stop-color="#FE9F20"/>
<stop offset="0.2" stop-color="#FD8D0E"/>
<stop offset="0.36" stop-color="#FC8103"/>
<stop offset="0.53" stop-color="#FC7E00"/>
<stop offset="1" stop-color="#FF4800"/>
</linearGradient>
<linearGradient id="paint1_linear_15_40" x1="211.367" y1="36.135" x2="221.209" y2="20.0089" gradientUnits="userSpaceOnUse">
<stop stop-color="#FFA727"/>
<stop offset="0.05" stop-color="#FE9F20"/>
<stop offset="0.2" stop-color="#FD8D0E"/>
<stop offset="0.36" stop-color="#FC8103"/>
<stop offset="0.53" stop-color="#FC7E00"/>
<stop offset="1" stop-color="#FF4800"/>
</linearGradient>
<linearGradient id="paint2_linear_15_40" x1="196.258" y1="23.0145" x2="199" y2="30.2409" gradientUnits="userSpaceOnUse">
<stop stop-color="#FFA727"/>
<stop offset="0.05" stop-color="#FE9F20"/>
<stop offset="0.2" stop-color="#FD8D0E"/>
<stop offset="0.36" stop-color="#FC8103"/>
<stop offset="0.53" stop-color="#FC7E00"/>
<stop offset="1" stop-color="#FF4800"/>
</linearGradient>
</defs>
</svg>
